CommonSerif-BoldItalic.ufo
<glyph name="P" format="2">
  <advance width="572"/>
  <unicode hex="0050"/>
  <outline>
    <contour>
      <point x="443" y="658" type="curve" smooth="yes"/>
      <point x="386" y="658"/>
      <point x="329" y="645"/>
      <point x="272" y="645" type="curve"/>
      <point x="264" y="645" type="line"/>
      <point x="136" y="0" type="line"/>
      <point x="174" y="0"/>
      <point x="269" y="-1"/>
      <point x="307" y="-2" type="curve"/>
      <point x="318" y="4"/>
      <point x="321" y="26"/>
      <point x="313" y="32" type="curve"/>
      <point x="279" y="34"/>
      <point x="235" y="40"/>
      <point x="243" y="81" type="curve" smooth="yes"/>
      <point x="329" y="524" type="line" smooth="yes"/>
      <point x="342" y="592"/>
      <point x="357" y="617"/>
      <point x="404" y="617" type="curve" smooth="yes"/>
      <point x="451" y="617"/>
      <point x="501" y="596"/>
      <point x="501" y="517" type="curve" smooth="yes"/>
      <point x="501" y="427"/>
      <point x="468" y="319"/>
      <point x="360" y="319" type="curve" smooth="yes"/>
      <point x="343" y="319"/>
      <point x="330" y="320"/>
      <point x="313" y="322" type="curve"/>
      <point x="309" y="303"/>
      <point x="312" y="289"/>
      <point x="324" y="280" type="curve"/>
      <point x="337" y="278"/>
      <point x="348" y="277"/>
      <point x="357" y="277" type="curve" smooth="yes"/>
      <point x="509" y="277"/>
      <point x="647" y="348"/>
      <point x="647" y="518" type="curve" smooth="yes"/>
      <point x="647" y="636"/>
      <point x="537" y="658"/>
    </contour>
    <contour>
      <point x="228" y="0" type="line"/>
      <point x="331" y="536" type="line"/>
      <point x="277" y="645" type="line"/>
      <point x="217" y="645"/>
      <point x="170" y="646"/>
      <point x="135" y="647" type="curve"/>
      <point x="130" y="642"/>
      <point x="127" y="624"/>
      <point x="129" y="613" type="curve"/>
      <point x="182" y="609"/>
      <point x="199" y="598"/>
      <point x="199" y="566" type="curve" smooth="yes"/>
      <point x="199" y="555"/>
      <point x="197" y="540"/>
      <point x="194" y="522" type="curve" smooth="yes"/>
      <point x="117" y="122" type="line" smooth="yes"/>
      <point x="104" y="55"/>
      <point x="86" y="40"/>
      <point x="16" y="32" type="curve"/>
      <point x="10" y="26"/>
      <point x="4" y="5"/>
      <point x="9" y="-2" type="curve"/>
      <point x="46" y="-1"/>
      <point x="115" y="0"/>
      <point x="145" y="0" type="curve" smooth="yes"/>
    </contour>
  </outline>
</glyph>
<glyph name="f" format="2">
  <advance width="397"/>
  <unicode hex="0066"/>
  <outline>
    <contour>
      <point x="191" y="382" type="line"/>
      <point x="169" y="269"/>
      <point x="160" y="216"/>
      <point x="150" y="141" type="curve" smooth="yes"/>
      <point x="141" y="77"/>
      <point x="130" y="-185"/>
      <point x="34" y="-185" type="curve" smooth="yes"/>
      <point x="21" y="-185"/>
      <point x="10" y="-172"/>
      <point x="1" y="-158" type="curve"/>
      <point x="-13" y="-133"/>
      <point x="-34" y="-122"/>
      <point x="-57" y="-122" type="curve" smooth="yes"/>
      <point x="-90" y="-122"/>
      <point x="-102" y="-148"/>
      <point x="-102" y="-168" type="curve" smooth="yes"/>
      <point x="-102" y="-195"/>
      <point x="-70" y="-233"/>
      <point x="12" y="-233" type="curve" smooth="yes"/>
      <point x="175" y="-233"/>
      <point x="243" y="10"/>
      <point x="269" y="130" type="curve" smooth="yes"/>
      <point x="286" y="208"/>
      <point x="300" y="271"/>
      <point x="315" y="359" type="curve" smooth="yes"/>
      <point x="319" y="382" type="line"/>
      <point x="412" y="382" type="line" smooth="yes"/>
      <point x="421" y="382"/>
      <point x="436" y="386"/>
      <point x="438" y="394" type="curve"/>
      <point x="438" y="394"/>
      <point x="443" y="423"/>
      <point x="443" y="424" type="curve" smooth="yes"/>
      <point x="443" y="427"/>
      <point x="441" y="429"/>
      <point x="436" y="429" type="curve" smooth="yes"/>
      <point x="326" y="429" type="line"/>
      <point x="337" y="486" type="line" smooth="yes"/>
      <point x="361" y="611"/>
      <point x="387" y="656"/>
      <point x="436" y="656" type="curve" smooth="yes"/>
      <point x="462" y="656"/>
      <point x="478" y="645"/>
      <point x="484" y="618" type="curve" smooth="yes"/>
      <point x="489" y="591"/>
      <point x="499" y="555"/>
      <point x="540" y="555" type="curve" smooth="yes"/>
      <point x="577" y="555"/>
      <point x="592" y="587"/>
      <point x="592" y="609" type="curve" smooth="yes"/>
      <point x="592" y="677"/>
      <point x="477" y="700"/>
      <point x="423" y="700" type="curve" smooth="yes"/>
      <point x="285" y="700"/>
      <point x="225" y="548"/>
      <point x="201" y="429" type="curve"/>
      <point x="135" y="426" type="line" smooth="yes"/>
      <point x="116" y="425"/>
      <point x="109" y="417"/>
      <point x="107" y="409" type="curve" smooth="yes"/>
      <point x="106" y="406"/>
      <point x="103" y="386"/>
      <point x="103" y="384" type="curve" smooth="yes"/>
      <point x="103" y="382"/>
      <point x="106" y="382"/>
      <point x="109" y="382" type="curve" smooth="yes"/>
    </contour>
  </outline>
</glyph>
<glyph name="bar" format="2">
  <advance width="242"/>
  <unicode hex="007C"/>
  <outline>
    <contour>
      <point x="195.309" y="-240" type="curve"/>
      <point x="195.309" y="720" type="line"/>
      <point x="177.774" y="726"/>
      <point x="158.394" y="726"/>
      <point x="138.309" y="720" type="curve"/>
      <point x="138.309" y="-240" type="line"/>
      <point x="155.843" y="-246"/>
      <point x="175.223" y="-246"/>
    </contour>
  </outline>
</glyph>
<glyph name="Tbar" format="2">
  <advance width="625"/>
  <unicode hex="0166"/>
  <outline>
    <contour>
      <point x="161" y="-2" type="curve"/>
      <point x="208" y="-1"/>
      <point x="259" y="0"/>
      <point x="320" y="0" type="curve" smooth="yes"/>
      <point x="383" y="0"/>
      <point x="433" y="-1"/>
      <point x="481" y="-2" type="curve"/>
      <point x="488" y="4"/>
      <point x="493" y="26"/>
      <point x="488" y="32" type="curve"/>
      <point x="406" y="35"/>
      <point x="402" y="64"/>
      <point x="413" y="123" type="curve" smooth="yes"/>
      <point x="453" y="329" type="line"/>
      <point x="555" y="329" type="line" smooth="yes"/>
      <point x="567" y="329"/>
      <point x="579" y="344"/>
      <point x="581" y="355" type="curve" smooth="yes"/>
      <point x="581" y="362"/>
      <point x="580" y="368"/>
      <point x="572" y="368" type="curve" smooth="yes"/>
      <point x="461" y="368" type="line"/>
      <point x="487" y="503" type="line" smooth="yes"/>
      <point x="499" y="567"/>
      <point x="515" y="605"/>
      <point x="550" y="605" type="curve" smooth="yes"/>
      <point x="572" y="605" type="line" smooth="yes"/>
      <point x="644" y="605"/>
      <point x="679" y="579"/>
      <point x="680" y="502" type="curve"/>
      <point x="691" y="502"/>
      <point x="710" y="503"/>
      <point x="719" y="507" type="curve"/>
      <point x="721" y="553"/>
      <point x="726" y="605"/>
      <point x="734" y="650" type="curve"/>
      <point x="734" y="651"/>
      <point x="733" y="653"/>
      <point x="732" y="653" type="curve"/>
      <point x="699" y="650"/>
      <point x="591" y="645"/>
      <point x="515" y="645" type="curve" smooth="yes"/>
      <point x="380" y="645" type="line" smooth="yes"/>
      <point x="306" y="645"/>
      <point x="194" y="650"/>
      <point x="158" y="653" type="curve"/>
      <point x="156" y="653"/>
      <point x="153" y="651"/>
      <point x="153" y="650" type="curve"/>
      <point x="140" y="605"/>
      <point x="121" y="552"/>
      <point x="101" y="504" type="curve"/>
      <point x="110" y="500"/>
      <point x="125" y="499"/>
      <point x="137" y="499" type="curve"/>
      <point x="172" y="579"/>
      <point x="217" y="605"/>
      <point x="280" y="605" type="curve" smooth="yes"/>
      <point x="327" y="605" type="line" smooth="yes"/>
      <point x="363" y="605"/>
      <point x="365" y="567"/>
      <point x="353" y="506" type="curve" smooth="yes"/>
      <point x="326" y="368" type="line"/>
      <point x="215" y="368" type="line" smooth="yes"/>
      <point x="203" y="368"/>
      <point x="191" y="349"/>
      <point x="191" y="339" type="curve" smooth="yes"/>
      <point x="191" y="334"/>
      <point x="193" y="329"/>
      <point x="199" y="329" type="curve" smooth="yes"/>
      <point x="318" y="329" type="line"/>
      <point x="278" y="123" type="line" smooth="yes"/>
      <point x="263" y="46"/>
      <point x="250" y="35"/>
      <point x="167" y="32" type="curve"/>
      <point x="160" y="26"/>
      <point x="156" y="4"/>
    </contour>
  </outline>
</glyph>
<glyph name="uni018F" format="2">
  <advance width="668"/>
  <unicode hex="018F"/>
  <outline>
    <contour>
      <point x="222" y="523" type="line"/>
      <point x="288" y="575"/>
      <point x="359" y="624"/>
      <point x="453" y="624" type="curve" smooth="yes"/>
      <point x="561" y="624"/>
      <point x="627" y="534"/>
      <point x="627" y="402" type="curve" smooth="yes"/>
      <point x="627" y="361"/>
      <point x="618" y="300"/>
      <point x="604" y="260" type="curve"/>
      <point x="106" y="260" type="line"/>
      <point x="104" y="240"/>
      <point x="102" y="221"/>
      <point x="102" y="202" type="curve" smooth="yes"/>
      <point x="102" y="84"/>
      <point x="162" y="-12"/>
      <point x="328" y="-12" type="curve" smooth="yes"/>
      <point x="554" y="-12"/>
      <point x="721" y="200"/>
      <point x="721" y="415" type="curve" smooth="yes"/>
      <point x="721" y="543"/>
      <point x="651" y="658"/>
      <point x="476" y="658" type="curve" smooth="yes"/>
      <point x="366" y="658"/>
      <point x="301" y="621"/>
      <point x="205" y="547" type="curve"/>
    </contour>
    <contour>
      <point x="176" y="216" type="curve"/>
      <point x="585" y="216" type="line"/>
      <point x="544" y="116"/>
      <point x="448" y="22"/>
      <point x="342" y="22" type="curve" smooth="yes"/>
      <point x="245" y="22"/>
      <point x="178" y="86"/>
    </contour>
  </outline>
</glyph>
<glyph name="aringacute" format="2">
  <advance width="486"/>
  <unicode hex="01FB"/>
  <outline>
    <contour>
      <point x="410" y="433" type="curve"/>
      <point x="383" y="436"/>
      <point x="370" y="439"/>
      <point x="330" y="439" type="curve" smooth="yes"/>
      <point x="223" y="439"/>
      <point x="78" y="282"/>
      <point x="78" y="125" type="curve" smooth="yes"/>
      <point x="78" y="69"/>
      <point x="91" y="-10"/>
      <point x="175" y="-10" type="curve" smooth="yes"/>
      <point x="228" y="-10"/>
      <point x="284" y="45"/>
      <point x="344" y="134" type="curve"/>
      <point x="346" y="132" type="line"/>
      <point x="333" y="90" type="line" smooth="yes"/>
      <point x="326" y="67"/>
      <point x="323" y="47"/>
      <point x="323" y="35" type="curve" smooth="yes"/>
      <point x="323" y="16"/>
      <point x="330" y="-10"/>
      <point x="364" y="-10" type="curve" smooth="yes"/>
      <point x="426" y="-10"/>
      <point x="466" y="30"/>
      <point x="492" y="87" type="curve"/>
      <point x="487" y="96"/>
      <point x="482" y="103"/>
      <point x="469" y="103" type="curve"/>
      <point x="442" y="66"/>
      <point x="423" y="50"/>
      <point x="413" y="50" type="curve" smooth="yes"/>
      <point x="410" y="50"/>
      <point x="401" y="52"/>
      <point x="401" y="64" type="curve" smooth="yes"/>
      <point x="401" y="73"/>
      <point x="407" y="101"/>
      <point x="411" y="120" type="curve" smooth="yes"/>
      <point x="480" y="431" type="line"/>
      <point x="473" y="431"/>
      <point x="467" y="431"/>
      <point x="460" y="431" type="curve"/>
      <point x="442" y="430"/>
      <point x="425" y="429"/>
    </contour>
    <contour>
      <point x="360" y="219" type="curve"/>
      <point x="311" y="129"/>
      <point x="234" y="45"/>
      <point x="202" y="45" type="curve" smooth="yes"/>
      <point x="168" y="45"/>
      <point x="158" y="85"/>
      <point x="158" y="141" type="curve" smooth="yes"/>
      <point x="158" y="247"/>
      <point x="241" y="408"/>
      <point x="333" y="408" type="curve" smooth="yes"/>
      <point x="354" y="408"/>
      <point x="376" y="401"/>
      <point x="395" y="389" type="curve"/>
      <point x="395" y="389"/>
      <point x="385" y="283"/>
    </contour>
    <contour>
      <point x="256" y="582" type="curve" smooth="yes"/>
      <point x="247" y="536"/>
      <point x="280" y="499"/>
      <point x="326" y="499" type="curve" smooth="yes"/>
      <point x="374" y="499"/>
      <point x="421" y="537"/>
      <point x="430" y="582" type="curve" smooth="yes"/>
      <point x="440" y="629"/>
      <point x="406" y="665"/>
      <point x="360" y="665" type="curve" smooth="yes"/>
      <point x="314" y="665"/>
      <point x="265" y="628"/>
    </contour>
    <contour>
      <point x="354" y="638" type="curve" smooth="yes"/>
      <point x="384" y="638"/>
      <point x="399" y="613"/>
      <point x="393" y="582" type="curve" smooth="yes"/>
      <point x="387" y="554"/>
      <point x="363" y="526"/>
      <point x="332" y="526" type="curve" smooth="yes"/>
      <point x="301" y="526"/>
      <point x="287" y="554"/>
      <point x="293" y="582" type="curve" smooth="yes"/>
      <point x="299" y="612"/>
      <point x="323" y="638"/>
    </contour>
    <contour>
      <point x="456" y="830" type="curve"/>
      <point x="376" y="723" type="line" smooth="yes"/>
      <point x="367" y="712"/>
      <point x="364" y="708"/>
      <point x="362" y="698" type="curve" smooth="yes"/>
      <point x="361" y="692"/>
      <point x="366" y="686"/>
      <point x="371" y="686" type="curve" smooth="yes"/>
      <point x="377" y="686"/>
      <point x="384" y="690"/>
      <point x="398" y="703" type="curve" smooth="yes"/>
      <point x="508" y="801" type="line"/>
      <point x="507" y="811" type="line"/>
      <point x="493" y="831"/>
      <point x="472" y="832"/>
      <point x="467" y="832" type="curve" smooth="yes"/>
      <point x="463" y="832"/>
      <point x="458" y="831"/>
    </contour>
  </outline>
</glyph>
<glyph name="uni0237" format="2">
  <advance width="310"/>
  <unicode hex="0237"/>
  <outline>
    <contour>
      <point x="121" y="176" type="line" smooth="yes"/>
      <point x="92" y="33"/>
      <point x="62" y="-172"/>
      <point x="14" y="-172" type="curve" smooth="yes"/>
      <point x="-23" y="-172"/>
      <point x="-10" y="-99"/>
      <point x="-76" y="-99" type="curve" smooth="yes"/>
      <point x="-94" y="-99"/>
      <point x="-115" y="-114"/>
      <point x="-115" y="-144" type="curve" smooth="yes"/>
      <point x="-115" y="-191"/>
      <point x="-64" y="-207"/>
      <point x="-5" y="-207" type="curve" smooth="yes"/>
      <point x="126" y="-207"/>
      <point x="178" y="-125"/>
      <point x="205" y="0" type="curve" smooth="yes"/>
      <point x="258" y="249" type="line"/>
      <point x="136" y="249" type="line"/>
    </contour>
    <contour>
      <point x="136" y="249" type="line"/>
      <point x="258" y="249" type="line"/>
      <point x="273" y="319" type="line" smooth="yes"/>
      <point x="282" y="359"/>
      <point x="294" y="401"/>
      <point x="294" y="418" type="curve" smooth="yes"/>
      <point x="294" y="430"/>
      <point x="288" y="436"/>
      <point x="277" y="436" type="curve"/>
      <point x="246" y="431"/>
      <point x="149" y="423"/>
      <point x="101" y="423" type="curve"/>
      <point x="94" y="415"/>
      <point x="93" y="393"/>
      <point x="99" y="384" type="curve"/>
      <point x="139" y="381" type="line" smooth="yes"/>
      <point x="151" y="380"/>
      <point x="157" y="371"/>
      <point x="157" y="359" type="curve" smooth="yes"/>
      <point x="157" y="352"/>
      <point x="155" y="339"/>
      <point x="151" y="320" type="curve" smooth="yes"/>
    </contour>
  </outline>
</glyph>
<glyph name="uni0259" format="2">
  <advance width="437"/>
  <unicode hex="0259"/>
  <outline>
    <contour>
      <point x="360" y="230" type="curve"/>
      <point x="99" y="179"/>
      <point x="92" y="98"/>
      <point x="92" y="60" type="curve" smooth="yes"/>
      <point x="92" y="25"/>
      <point x="110" y="-10"/>
      <point x="191" y="-10" type="curve" smooth="yes"/>
      <point x="362" y="-10"/>
      <point x="444" y="160"/>
      <point x="444" y="287" type="curve" smooth="yes"/>
      <point x="444" y="372"/>
      <point x="416" y="439"/>
      <point x="314" y="439" type="curve" smooth="yes"/>
      <point x="233" y="439"/>
      <point x="177" y="398"/>
      <point x="121" y="321" type="curve"/>
      <point x="126" y="310"/>
      <point x="131" y="305"/>
      <point x="143" y="305" type="curve"/>
      <point x="197" y="363"/>
      <point x="230" y="391"/>
      <point x="278" y="391" type="curve" smooth="yes"/>
      <point x="323" y="391"/>
      <point x="361" y="355"/>
      <point x="361" y="264" type="curve" smooth="yes"/>
      <point x="361" y="259"/>
      <point x="361" y="238"/>
    </contour>
    <contour>
      <point x="162" y="59" type="curve" smooth="yes"/>
      <point x="162" y="154"/>
      <point x="279" y="197"/>
      <point x="356" y="203" type="curve"/>
      <point x="321" y="52"/>
      <point x="262" y="21"/>
      <point x="214" y="21" type="curve" smooth="yes"/>
      <point x="178" y="21"/>
      <point x="162" y="30"/>
    </contour>
  </outline>
</glyph>
<glyph name="uni028F" format="2">
  <advance width="470"/>
  <unicode hex="028F"/>
  <outline>
    <contour>
      <point x="293" y="69" type="curve"/>
      <point x="317" y="171" type="line"/>
      <point x="453" y="362" type="line" smooth="yes"/>
      <point x="473" y="389"/>
      <point x="488" y="408"/>
      <point x="527" y="410" type="curve"/>
      <point x="547" y="410" type="line" smooth="yes"/>
      <point x="552" y="410"/>
      <point x="556" y="412"/>
      <point x="556" y="416" type="curve"/>
      <point x="560" y="432" type="line"/>
      <point x="473" y="429" type="line"/>
      <point x="383" y="432" type="line"/>
      <point x="379" y="415" type="line" smooth="yes"/>
      <point x="378" y="412"/>
      <point x="379" y="410"/>
      <point x="381" y="410" type="curve" smooth="yes"/>
      <point x="411" y="410" type="line"/>
      <point x="427" y="409"/>
      <point x="436" y="407"/>
      <point x="436" y="399" type="curve" smooth="yes"/>
      <point x="436" y="396" type="line"/>
      <point x="434" y="389"/>
      <point x="423" y="373"/>
      <point x="416" y="362" type="curve"/>
      <point x="302" y="207" type="line"/>
      <point x="257" y="362" type="line"/>
      <point x="254" y="370"/>
      <point x="252" y="381"/>
      <point x="252" y="389" type="curve" smooth="yes"/>
      <point x="252" y="394" type="line"/>
      <point x="255" y="403"/>
      <point x="269" y="408"/>
      <point x="290" y="409" type="curve" smooth="yes"/>
      <point x="320" y="410" type="line"/>
      <point x="322" y="410"/>
      <point x="323" y="412"/>
      <point x="324" y="415" type="curve" smooth="yes"/>
      <point x="328" y="431" type="line"/>
      <point x="214" y="429" type="line"/>
      <point x="109" y="431" type="line"/>
      <point x="105" y="415" type="line"/>
      <point x="105" y="412"/>
      <point x="107" y="410"/>
      <point x="112" y="410" type="curve"/>
      <point x="124" y="409" type="line"/>
      <point x="162" y="408"/>
      <point x="166" y="398"/>
      <point x="177" y="362" type="curve" smooth="yes"/>
      <point x="239" y="159" type="line"/>
      <point x="218" y="69" type="line" smooth="yes"/>
      <point x="209" y="30"/>
      <point x="202" y="22"/>
      <point x="167" y="21" type="curve"/>
      <point x="138" y="21" type="line" smooth="yes"/>
      <point x="134" y="21"/>
      <point x="132" y="20"/>
      <point x="131" y="16" type="curve" smooth="yes"/>
      <point x="127" y="0" type="line"/>
      <point x="238" y="2" type="line"/>
      <point x="352" y="0" type="line"/>
      <point x="355" y="16" type="line" smooth="yes"/>
      <point x="356" y="19"/>
      <point x="355" y="21"/>
      <point x="352" y="21" type="curve" smooth="yes"/>
      <point x="322" y="21" type="line"/>
      <point x="299" y="22"/>
      <point x="290" y="26"/>
      <point x="290" y="43" type="curve" smooth="yes"/>
      <point x="290" y="49"/>
      <point x="291" y="58"/>
    </contour>
  </outline>
</glyph>
<glyph name="uni02AD" format="2">
  <advance width="397"/>
  <unicode hex="02AD"/>
  <outline>
    <contour>
      <point x="354" y="23" type="line"/>
      <point x="400" y="224" type="line"/>
      <point x="101" y="224" type="line"/>
      <point x="54" y="23" type="line"/>
      <point x="83" y="23" type="line"/>
      <point x="116" y="170" type="line"/>
      <point x="359" y="170" type="line"/>
      <point x="326" y="23" type="line"/>
    </contour>
    <contour>
      <point x="432" y="362" type="line"/>
      <point x="479" y="562" type="line"/>
      <point x="179" y="562" type="line"/>
      <point x="132" y="362" type="line"/>
      <point x="161" y="362" type="line"/>
      <point x="194" y="508" type="line"/>
      <point x="438" y="508" type="line"/>
      <point x="404" y="362" type="line"/>
    </contour>
  </outline>
</glyph>
<glyph name="ogonek" format="2">
  <advance width="334"/>
  <unicode hex="02DB"/>
  <outline>
    <contour>
      <point x="232" y="-160" type="curve"/>
      <point x="232" y="-150"/>
      <point x="225" y="-140"/>
      <point x="217" y="-137" type="curve"/>
      <point x="204" y="-149"/>
      <point x="182" y="-165"/>
      <point x="160" y="-165" type="curve" smooth="yes"/>
      <point x="137" y="-165"/>
      <point x="123" y="-148"/>
      <point x="123" y="-119" type="curve" smooth="yes"/>
      <point x="123" y="-80"/>
      <point x="148" y="-42"/>
      <point x="216" y="10" type="curve"/>
      <point x="200" y="34" type="line"/>
      <point x="99" y="-22"/>
      <point x="28" y="-79"/>
      <point x="28" y="-146" type="curve" smooth="yes"/>
      <point x="28" y="-194"/>
      <point x="61" y="-222"/>
      <point x="107" y="-222" type="curve" smooth="yes"/>
      <point x="155" y="-222"/>
      <point x="204" y="-191"/>
    </contour>
  </outline>
</glyph>
<glyph name="uni0313" format="2">
  <unicode hex="0313"/>
  <outline>
    <contour>
      <point x="59.3525" y="696" type="curve" smooth="yes"/>
      <point x="22.7848" y="696"/>
      <point x="-2.21662" y="674.454"/>
      <point x="-2.21662" y="643" type="curve" smooth="yes"/>
      <point x="-2.21662" y="627.353"/>
      <point x="6.48981" y="610"/>
      <point x="40.5023" y="610" type="curve" smooth="yes"/>
      <point x="46.5023" y="610"/>
      <point x="51.5023" y="610"/>
      <point x="54.5023" y="611" type="curve"/>
      <point x="67.5023" y="612"/>
      <point x="69.2736" y="612.044"/>
      <point x="66.5023" y="597" type="curve" smooth="yes"/>
      <point x="62.273" y="574.041"/>
      <point x="35.5023" y="542"/>
      <point x="-23.4977" y="530" type="curve"/>
      <point x="-25.4977" y="523"/>
      <point x="-26.4977" y="514"/>
      <point x="-22.4977" y="510" type="curve"/>
      <point x="40.1023" y="518.026"/>
      <point x="107.165" y="567.708"/>
      <point x="107.165" y="635.984" type="curve" smooth="yes"/>
      <point x="107.165" y="665.766"/>
      <point x="92.1922" y="696"/>
    </contour>
  </outline>
</glyph>
<glyph name="uni0333" format="2">
  <unicode hex="0333"/>
  <outline>
    <contour>
      <point x="-176" y="-194" type="line" smooth="yes"/>
      <point x="-163" y="-194"/>
      <point x="-149" y="-176"/>
      <point x="-147" y="-164" type="curve"/>
      <point x="-145" y="-157"/>
      <point x="-148" y="-150"/>
      <point x="-157" y="-150" type="curve" smooth="yes"/>
      <point x="-382" y="-150" type="line" smooth="yes"/>
      <point x="-394" y="-150"/>
      <point x="-407" y="-167"/>
      <point x="-410" y="-179" type="curve" smooth="yes"/>
      <point x="-411" y="-186"/>
      <point x="-409" y="-194"/>
      <point x="-401" y="-194" type="curve" smooth="yes"/>
    </contour>
    <contour>
      <point x="-158" y="-104" type="line" smooth="yes"/>
      <point x="-145" y="-104"/>
      <point x="-131" y="-86"/>
      <point x="-128" y="-74" type="curve" smooth="yes"/>
      <point x="-127" y="-67"/>
      <point x="-130" y="-60"/>
      <point x="-139" y="-60" type="curve" smooth="yes"/>
      <point x="-364" y="-60" type="line" smooth="yes"/>
      <point x="-376" y="-60"/>
      <point x="-389" y="-77"/>
      <point x="-392" y="-89" type="curve" smooth="yes"/>
      <point x="-393" y="-96"/>
      <point x="-391" y="-104"/>
      <point x="-383" y="-104" type="curve" smooth="yes"/>
    </contour>
  </outline>
</glyph>
<glyph name="uni0348" format="2">
  <unicode hex="0348"/>
  <outline>
    <contour>
      <point x="-164" y="-229" type="curve"/>
      <point x="-131" y="-66" type="line"/>
      <point x="-142" y="-62"/>
      <point x="-142" y="-60"/>
      <point x="-151" y="-60" type="curve" smooth="yes"/>
      <point x="-158" y="-60"/>
      <point x="-160" y="-62"/>
      <point x="-171" y="-66" type="curve"/>
      <point x="-205" y="-231" type="line"/>
      <point x="-193" y="-235"/>
      <point x="-191" y="-237"/>
      <point x="-183" y="-237" type="curve" smooth="yes"/>
      <point x="-176" y="-237"/>
      <point x="-176" y="-235"/>
    </contour>
    <contour>
      <point x="-274" y="-229" type="curve"/>
      <point x="-241" y="-66" type="line"/>
      <point x="-252" y="-62"/>
      <point x="-252" y="-60"/>
      <point x="-261" y="-60" type="curve" smooth="yes"/>
      <point x="-268" y="-60"/>
      <point x="-270" y="-62"/>
      <point x="-281" y="-66" type="curve"/>
      <point x="-315" y="-231" type="line"/>
      <point x="-303" y="-235"/>
      <point x="-301" y="-237"/>
      <point x="-293" y="-237" type="curve" smooth="yes"/>
      <point x="-286" y="-237"/>
      <point x="-286" y="-235"/>
    </contour>
  </outline>
</glyph>
<glyph name="uni0353" format="2">
  <unicode hex="0353"/>
  <outline>
    <contour>
      <point x="-263" y="-159" type="line"/>
      <point x="-174" y="-85" type="line"/>
      <point x="-193" y="-60" type="line"/>
      <point x="-282" y="-134" type="line"/>
      <point x="-340" y="-60" type="line"/>
      <point x="-370" y="-85" type="line"/>
      <point x="-311" y="-159" type="line"/>
      <point x="-400" y="-232" type="line"/>
      <point x="-380" y="-256" type="line"/>
      <point x="-292" y="-183" type="line"/>
      <point x="-233" y="-256" type="line"/>
      <point x="-204" y="-232" type="line"/>
    </contour>
  </outline>
</glyph>
<glyph name="uni035A" format="2">
  <unicode hex="035A"/>
  <outline>
    <contour>
      <point x="-351" y="-143" type="curve" smooth="yes"/>
      <point x="-360" y="-189"/>
      <point x="-326" y="-226"/>
      <point x="-280" y="-226" type="curve" smooth="yes"/>
      <point x="-253" y="-226"/>
      <point x="-225" y="-213"/>
      <point x="-205" y="-194" type="curve"/>
      <point x="-193" y="-213"/>
      <point x="-170" y="-226"/>
      <point x="-143" y="-226" type="curve" smooth="yes"/>
      <point x="-95" y="-226"/>
      <point x="-49" y="-188"/>
      <point x="-40" y="-143" type="curve" smooth="yes"/>
      <point x="-30" y="-96"/>
      <point x="-64" y="-60"/>
      <point x="-110" y="-60" type="curve" smooth="yes"/>
      <point x="-137" y="-60"/>
      <point x="-164" y="-73"/>
      <point x="-185" y="-92" type="curve"/>
      <point x="-197" y="-72"/>
      <point x="-220" y="-60"/>
      <point x="-247" y="-60" type="curve" smooth="yes"/>
      <point x="-293" y="-60"/>
      <point x="-341" y="-97"/>
    </contour>
    <contour>
      <point x="-252" y="-87" type="curve" smooth="yes"/>
      <point x="-222" y="-87"/>
      <point x="-207" y="-112"/>
      <point x="-214" y="-143" type="curve"/>
      <point x="-219" y="-171"/>
      <point x="-244" y="-199"/>
      <point x="-275" y="-199" type="curve" smooth="yes"/>
      <point x="-306" y="-199"/>
      <point x="-319" y="-171"/>
      <point x="-314" y="-143" type="curve" smooth="yes"/>
      <point x="-308" y="-113"/>
      <point x="-283" y="-87"/>
    </contour>
    <contour>
      <point x="-177" y="-143" type="curve" smooth="yes"/>
      <point x="-171" y="-113"/>
      <point x="-146" y="-87"/>
      <point x="-115" y="-87" type="curve" smooth="yes"/>
      <point x="-85" y="-87"/>
      <point x="-70" y="-112"/>
      <point x="-77" y="-143" type="curve"/>
      <point x="-82" y="-171"/>
      <point x="-107" y="-199"/>
      <point x="-138" y="-199" type="curve" smooth="yes"/>
      <point x="-169" y="-199"/>
      <point x="-182" y="-171"/>
    </contour>
  </outline>
</glyph>
<glyph name="uni037A" format="2">
  <advance width="331"/>
  <unicode hex="037A"/>
  <outline>
    <contour>
      <point x="107" y="-92" type="line"/>
      <point x="89" y="-174" type="line" smooth="yes"/>
      <point x="87" y="-183"/>
      <point x="86" y="-191"/>
      <point x="86" y="-199" type="curve" smooth="yes"/>
      <point x="86" y="-239"/>
      <point x="115" y="-256"/>
      <point x="156" y="-256" type="curve" smooth="yes"/>
      <point x="181" y="-256"/>
      <point x="229" y="-242"/>
      <point x="261" y="-173" type="curve"/>
      <point x="238" y="-165" type="line"/>
      <point x="225" y="-192"/>
      <point x="204" y="-216"/>
      <point x="186" y="-216" type="curve" smooth="yes"/>
      <point x="172" y="-216"/>
      <point x="164" y="-206"/>
      <point x="164" y="-183" type="curve" smooth="yes"/>
      <point x="164" y="-171"/>
      <point x="166" y="-156"/>
      <point x="170" y="-138" type="curve" smooth="yes"/>
      <point x="182" y="-86" type="line"/>
      <point x="163" y="-79" type="line"/>
    </contour>
  </outline>
</glyph>
<glyph name="uni05C1" format="2">
  <unicode hex="05C1"/>
  <outline>
    <contour>
      <point x="488" y="627" type="curve"/>
      <point x="488" y="625"/>
      <point x="487" y="622"/>
      <point x="487" y="620" type="curve" smooth="yes"/>
      <point x="487" y="604"/>
      <point x="499" y="593"/>
      <point x="515" y="593" type="curve" smooth="yes"/>
      <point x="534" y="593"/>
      <point x="553" y="608"/>
      <point x="558" y="627" type="curve"/>
      <point x="558" y="630"/>
      <point x="559" y="633"/>
      <point x="559" y="635" type="curve" smooth="yes"/>
      <point x="559" y="650"/>
      <point x="547" y="662"/>
      <point x="531" y="662" type="curve" smooth="yes"/>
      <point x="512" y="662"/>
      <point x="493" y="646"/>
    </contour>
  </outline>
</glyph>
<glyph name="quotedblleft" format="2">
  <advance width="375"/>
  <unicode hex="201C"/>
  <outline>
    <contour>
      <point x="379.014" y="500" type="curve" smooth="yes"/>
      <point x="415.79" y="500"/>
      <point x="453.014" y="526.692"/>
      <point x="453.014" y="564" type="curve" smooth="yes"/>
      <point x="453.014" y="594.338"/>
      <point x="441.443" y="616.375"/>
      <point x="417.495" y="623.325" type="curve" smooth="yes"/>
      <point x="408.158" y="626.035"/>
      <point x="399.493" y="633.591"/>
      <point x="399.451" y="648.772" type="curve" smooth="yes"/>
      <point x="399.352" y="684.928"/>
      <point x="484.272" y="754.458"/>
      <point x="517.014" y="763" type="curve"/>
      <point x="525.014" y="776"/>
      <point x="526.014" y="787"/>
      <point x="517.014" y="794" type="curve"/>
      <point x="417.466" y="777.857"/>
      <point x="315.754" y="677.97"/>
      <point x="315.754" y="573.69" type="curve" smooth="yes"/>
      <point x="315.754" y="529.296"/>
      <point x="340.772" y="500"/>
    </contour>
    <contour>
      <point x="205.014" y="500" type="curve" smooth="yes"/>
      <point x="241.79" y="500"/>
      <point x="279.014" y="526.692"/>
      <point x="279.014" y="564" type="curve" smooth="yes"/>
      <point x="279.014" y="594.749"/>
      <point x="267.539" y="616.625"/>
      <point x="243.495" y="623.325" type="curve" smooth="yes"/>
      <point x="231.299" y="626.723"/>
      <point x="225.454" y="636.383"/>
      <point x="225.446" y="648.76" type="curve" smooth="yes"/>
      <point x="225.421" y="684.974"/>
      <point x="310.216" y="754.444"/>
      <point x="343.014" y="763" type="curve"/>
      <point x="351.014" y="776"/>
      <point x="352.014" y="787"/>
      <point x="343.014" y="794" type="curve"/>
      <point x="243.466" y="777.857"/>
      <point x="141.754" y="677.97"/>
      <point x="141.754" y="573.69" type="curve" smooth="yes"/>
      <point x="141.754" y="529.296"/>
      <point x="166.772" y="500"/>
    </contour>
  </outline>
</glyph>
<glyph name="uni2083" format="2">
  <advance width="321"/>
  <unicode hex="2083"/>
  <outline>
    <contour>
      <point x="90.2814" y="-10" type="curve"/>
      <point x="103.281" y="-7"/>
      <point x="114.281" y="-6"/>
      <point x="123.281" y="-6" type="curve" smooth="yes"/>
      <point x="168.281" y="-6"/>
      <point x="184.281" y="-25"/>
      <point x="184.281" y="-50" type="curve" smooth="yes"/>
      <point x="184.281" y="-91"/>
      <point x="138.281" y="-147"/>
      <point x="101.281" y="-147" type="curve" smooth="yes"/>
      <point x="82.2814" y="-147"/>
      <point x="74.2814" y="-141"/>
      <point x="66.2814" y="-128" type="curve"/>
      <point x="64.2814" y="-114"/>
      <point x="49.2814" y="-91"/>
      <point x="25.2814" y="-91" type="curve" smooth="yes"/>
      <point x="2.2814" y="-91"/>
      <point x="-10.7186" y="-108"/>
      <point x="-10.7186" y="-132" type="curve" smooth="yes"/>
      <point x="-10.7186" y="-154"/>
      <point x="13.2814" y="-177"/>
      <point x="86.2814" y="-177" type="curve" smooth="yes"/>
      <point x="164.281" y="-177"/>
      <point x="276.281" y="-126"/>
      <point x="276.281" y="-34" type="curve" smooth="yes"/>
      <point x="276.281" y="8"/>
      <point x="251.281" y="21"/>
      <point x="219.281" y="32" type="curve"/>
      <point x="252.281" y="48"/>
      <point x="283.281" y="67"/>
      <point x="283.281" y="116" type="curve" smooth="yes"/>
      <point x="283.281" y="151"/>
      <point x="247.281" y="173"/>
      <point x="192.281" y="173" type="curve" smooth="yes"/>
      <point x="152.281" y="173"/>
      <point x="45.2814" y="142"/>
      <point x="45.2814" y="86" type="curve" smooth="yes"/>
      <point x="45.2814" y="77"/>
      <point x="49.2814" y="64"/>
      <point x="71.2814" y="64" type="curve" smooth="yes"/>
      <point x="98.2814" y="64"/>
      <point x="114.281" y="84"/>
      <point x="117.281" y="104" type="curve"/>
      <point x="125.281" y="123"/>
      <point x="152.281" y="143"/>
      <point x="176.281" y="143" type="curve" smooth="yes"/>
      <point x="191.281" y="143"/>
      <point x="201.281" y="130"/>
      <point x="201.281" y="111" type="curve" smooth="yes"/>
      <point x="201.281" y="59"/>
      <point x="140.281" y="26"/>
      <point x="96.2814" y="20" type="curve"/>
      <point x="91.2814" y="13"/>
      <point x="88.2814" y="-4"/>
    </contour>
  </outline>
</glyph>
<glyph name="ruble" format="2">
  <advance width="572"/>
  <unicode hex="20BD"/>
  <anchor x="385" y="740" name="t.uni0302"/>
  <anchor x="145" y="-60" name="b.minus-60"/>
  <outline>
    <component base="P"/>
    <contour>
      <point x="78.9986" y="189.099" type="line"/>
      <point x="428.999" y="189.099" type="line"/>
      <point x="435.999" y="223.099" type="line"/>
      <point x="85.9986" y="223.099" type="line"/>
    </contour>
  </outline>
</glyph>
<glyph name="uni2216" format="2">
  <advance width="527"/>
  <unicode hex="2216"/>
  <outline>
    <contour>
      <point x="466" y="0" type="line"/>
      <point x="516" y="0" type="line"/>
      <point x="177" y="573" type="line"/>
      <point x="128" y="573" type="line"/>
    </contour>
  </outline>
</glyph>
<glyph name="parenright.sc" format="2">
  <advance width="295"/>
  <outline>
    <contour>
      <point x="-38" y="-181" type="curve"/>
      <point x="-12" y="-214" type="line"/>
      <point x="183" y="-75"/>
      <point x="345" y="133"/>
      <point x="345" y="383" type="curve" smooth="yes"/>
      <point x="345" y="517"/>
      <point x="299" y="617"/>
      <point x="206" y="720" type="curve"/>
      <point x="163" y="686" type="line"/>
      <point x="214" y="609"/>
      <point x="231" y="509"/>
      <point x="231" y="423" type="curve" smooth="yes"/>
      <point x="231" y="204"/>
      <point x="121" y="-39"/>
    </contour>
  </outline>
</glyph>
